# xmcd
#
# Track frame offsets: 
#        150
#        15393
#        28353
#        53512
#
# Disc length: 1054 seconds
#
# Revision: 0
# Processed by: cddbd v1.5.2PL0 Copyright (c) Steve Scherf et al.
# Submitted via: ExactAudioCopy v1.0b3
#
DISCID=26041c04
DTITLE=Astrada - Subway #9
DYEAR=2004
DGENRE=Dance
TTITLE0=Subway #9 (Watermoon Video Edit)
TTITLE1=Subway #9 (Sir N DJ Original Radio Edit)
TTITLE2=Subway #9 (Watermoon Remix)
TTITLE3=Subway #9 (Sir N DJ Original Extended Version)
EXTD=
EXTT0=
EXTT1=
EXTT2=
EXTT3=
PLAYORDER=
